<svg xmlns="http://www.w3.org/2000/svg" viewBox="0 0 71 70"><path d="M41.8 51.2c1.7-.4 3.2-.6 4.7-1 5.8-1.5 9.3-5.2 10.4-11.1.8-3.2.7-6.6-.3-9.8-.5-1.4-1.2-2.7-2.2-3.8-.4-.4-.5-1-.3-1.5.7-2.4.6-4.9-.2-7.3-.1-.7-.7-1.1-1.4-1h-.2c-2.4.4-4.7 1.3-6.7 2.7-.9.7-2.1.8-3.3.5-4.7-1.1-9.6-1.1-14.3.1-.8.2-1.8.1-2.5-.4-1.9-1.3-4-2.3-6.2-2.8-1.9-.4-2.1-.3-2.6 1.5-.6 2.1-.6 4.3-.1 6.5.2.6.1 1.3-.4 1.8-4.8 5.4-3.1 17 1.5 21.1 2.7 2.3 6 3.7 9.5 4.2l1.8.3c-1.1 1.1-1.8 2.6-2 4.1-.1.4-.4.7-.8.8-3.3 1.6-7.3.4-9.2-2.8-.5-.8-1.1-1.6-1.8-2.2-.8-.8-1.8-1.3-2.9-1.6-.7-.2-1.7-.4-2.1.3s.6 1.2 1.2 1.6c1.6 1.1 2.8 2.6 3.4 4.4 1.8 5.1 6.2 6.3 10.8 5.5 1.1-.2 1.3 0 1.3 1.1-.1 1.4 0 2.7 0 4.1 0 2.2-1 2.9-3 2.1C12.8 64.2 5.3 56.4 2.2 44.9-2.8 27 7 6.4 28.9 1.8c11-2.3 21.2.6 29.5 8.1 8 6.9 12.3 17.2 11.6 27.7-.7 13.9-9.7 26.1-22.8 30.8-2.3.9-3.2.3-3.2-2.2v-8c0-2.6-.3-4.9-2.2-7z" fill="#84d9bc"/></svg>