<svg version="1.1" id="Capa_1" xmlns="http://www.w3.org/2000/svg" x="0" y="0" viewBox="0 0 68 69" xml:space="preserve"><style>.st0{fill:#84d9bc}</style><path class="st0" d="M34.1 1.1c18.5.1 33.4 15.1 33.3 33.6S52.3 68 33.9 67.9.5 52.8.6 34.4v-.5C.9 15.6 15.9 1 34.1 1.1zM55.4 44c.1-6.6.1-13.1 0-19.7C55.3 18 50.2 13 43.9 13h-20c-6 .1-11 4.9-11.2 10.9-.1 6.8-.1 13.5 0 20.3.1 6.9 5 11.6 11.9 11.6h9.5v.1h5.6c2.1.1 4.2.1 6.2-.2 5.7-1 9.4-5.5 9.5-11.7z" id="XMLID_1_"/><path class="st0" d="M52 34.4c0 3 .1 6 0 9-.2 5.1-4.4 9.2-9.6 9.1H25.7c-5.6 0-9.7-4.2-9.7-10-.1-5.3-.1-10.7 0-16 0-6.2 4-10.1 10.2-10.1h16c4.7-.1 8.8 3.1 9.6 7.7.2 1.6.2 3.2.1 4.8.1 1.9.1 3.7.1 5.5zm-29.8 0c-.1 6.6 5.1 12 11.7 12.1s12-5.1 12.1-11.7-5.1-12-11.7-12.1h-.1c-6.5-.1-11.8 5.1-11.9 11.6l-.1.1zm27.4-11c.1-1.8-1.3-3.3-3.1-3.4h-.2c-1.9 0-3.4 1.5-3.4 3.4.1 1.8 1.6 3.3 3.4 3.3 1.8 0 3.3-1.5 3.3-3.3z"/><path class="st0" d="M25.5 34.6c-.1-4.7 3.7-8.6 8.4-8.6 4.7-.1 8.6 3.7 8.6 8.4.1 4.7-3.7 8.6-8.4 8.6h-.2c-4.6 0-8.4-3.7-8.4-8.4z"/></svg>