<svg xmlns="http://www.w3.org/2000/svg" viewBox="0 0 69 70"><path d="M37.2 70h-5.8c-.1-.3-.5-.2-.7-.3-3.3-.4-6.6-1.2-9.7-2.5C6 60.9-2.3 45.3.7 28.9 4.2 9.5 22.9-1.9 40.8 1.4c19 3.5 31.5 22 27.6 40.7C65.4 56.2 56.5 65 42.7 69c-1.8.6-3.7.6-5.5 1zm.5-39c-.2-.7-.2-1.5-.1-2.2.1-.7-.2-1-.9-1h-5.2c-2.4 0-2.4 0-2.4 2.4 0 7.2 0 14.5-.1 21.7 0 1 .3 1.3 1.3 1.3 2-.1 4.1-.1 6.1 0 1 0 1.2-.4 1.2-1.3-.2-3.8.1-7.7 0-11.5v-2.3c.2-2.3 2.1-4.1 4.4-4.2 2-.2 3.6 1.1 4.1 3.4.2.8.3 1.7.2 2.5V52c0 .7.1 1.2.9 1.2h6.7c.7 0 .8-.3.8-.8-.1-5.3.2-10.6-.2-16-.3-4.5-3-7.9-6.9-8.8s-7.2-.2-9.9 3.4zm-21.6 9.4V52c0 .8.2 1.1 1.1 1.1h6.5c.8 0 .9-.3.9-1V28.7c0-.8-.3-1-1.1-1h-6.4c-.9 0-1.1.3-1.1 1.1.1 3.9.1 7.7.1 11.6zm4.1-16c2.8 0 4.8-1.8 4.9-4.4.1-2.4-1.9-4.4-4.3-4.5h-.4c-2.8 0-4.7 1.8-4.8 4.3-.1 2.4 1.8 4.5 4.2 4.6h.4z" fill="#84d9bc"/></svg>